<mxfile host="app.diagrams.net" agent="Mozilla/5.0 (Windows NT 10.0; Win64; x64) AppleWebKit/537.36 (KHTML, like Gecko) Chrome/140.0.0.0 Safari/537.36" version="28.2.5">
  <diagram id="C5RBs43oDa-KdzZeNtuy" name="Page-1">
    <mxGraphModel grid="1" page="1" gridSize="11" guides="1" tooltips="1" connect="1" arrows="1" fold="1" pageScale="1" pageWidth="827" pageHeight="1169" math="0" shadow="0">
      <root>
        <mxCell id="WIyWlLk6GJQsqaUBKTNV-0" />
        <mxCell id="WIyWlLk6GJQsqaUBKTNV-1" parent="WIyWlLk6GJQsqaUBKTNV-0" />
        <mxCell id="qC6aaCz-V2yhVmoQAuTK-48" value="" style="rounded=1;whiteSpace=wrap;html=1;" vertex="1" parent="WIyWlLk6GJQsqaUBKTNV-1">
          <mxGeometry x="227" y="594" width="488" height="132" as="geometry" />
        </mxCell>
        <mxCell id="FJs2IsX_IAVPDREQglW6-9" value="" style="rounded=1;whiteSpace=wrap;html=1;" vertex="1" parent="WIyWlLk6GJQsqaUBKTNV-1">
          <mxGeometry x="227" y="200" width="486" height="339" as="geometry" />
        </mxCell>
        <mxCell id="WIyWlLk6GJQsqaUBKTNV-7" value="" style="rounded=1;whiteSpace=wrap;html=1;fontSize=12;glass=0;strokeWidth=1;shadow=0;" vertex="1" parent="WIyWlLk6GJQsqaUBKTNV-1">
          <mxGeometry x="278" y="-33" width="400" height="148" as="geometry" />
        </mxCell>
        <mxCell id="WIyWlLk6GJQsqaUBKTNV-12" value="Orchestrator service AKS hosted" style="rounded=1;whiteSpace=wrap;html=1;fontSize=12;glass=0;strokeWidth=1;shadow=0;" vertex="1" parent="WIyWlLk6GJQsqaUBKTNV-1">
          <mxGeometry x="294" y="320" width="120" height="40" as="geometry" />
        </mxCell>
        <mxCell id="FJs2IsX_IAVPDREQglW6-15" value="" style="edgeStyle=orthogonalEdgeStyle;rounded=0;orthogonalLoop=1;jettySize=auto;html=1;" edge="1" parent="WIyWlLk6GJQsqaUBKTNV-1" source="qC6aaCz-V2yhVmoQAuTK-9">
          <mxGeometry relative="1" as="geometry">
            <mxPoint x="180" y="407" as="targetPoint" />
          </mxGeometry>
        </mxCell>
        <mxCell id="ZZRqX1T7qgezjlXLAi40-0" value="" style="image;aspect=fixed;html=1;points=[];align=center;fontSize=12;image=img/lib/azure2/integration/System_Topic.svg;" vertex="1" parent="WIyWlLk6GJQsqaUBKTNV-1">
          <mxGeometry y="615" width="56.67" height="50" as="geometry" />
        </mxCell>
        <mxCell id="ZZRqX1T7qgezjlXLAi40-1" value="Operations Hub&lt;div&gt;Event Hub&lt;/div&gt;" style="text;html=1;align=center;verticalAlign=middle;resizable=0;points=[];autosize=1;strokeColor=none;fillColor=none;" vertex="1" parent="WIyWlLk6GJQsqaUBKTNV-1">
          <mxGeometry x="-23.330000000000002" y="696" width="110" height="40" as="geometry" />
        </mxCell>
        <mxCell id="ZZRqX1T7qgezjlXLAi40-2" value="" style="image;aspect=fixed;html=1;points=[];align=center;fontSize=12;image=img/lib/azure2/databases/Azure_Cosmos_DB.svg;" vertex="1" parent="WIyWlLk6GJQsqaUBKTNV-1">
          <mxGeometry x="282" y="440" width="64" height="64" as="geometry" />
        </mxCell>
        <mxCell id="FJs2IsX_IAVPDREQglW6-12" value="" style="edgeStyle=orthogonalEdgeStyle;rounded=0;orthogonalLoop=1;jettySize=auto;html=1;" edge="1" parent="WIyWlLk6GJQsqaUBKTNV-1" source="ZZRqX1T7qgezjlXLAi40-3" target="ZZRqX1T7qgezjlXLAi40-11">
          <mxGeometry relative="1" as="geometry">
            <Array as="points">
              <mxPoint x="410" y="280" />
              <mxPoint x="410" y="280" />
            </Array>
          </mxGeometry>
        </mxCell>
        <mxCell id="ZZRqX1T7qgezjlXLAi40-3" value="" style="image;aspect=fixed;html=1;points=[];align=center;fontSize=12;image=img/lib/azure2/containers/Kubernetes_Services.svg;" vertex="1" parent="WIyWlLk6GJQsqaUBKTNV-1">
          <mxGeometry x="330" y="242" width="68" height="60" as="geometry" />
        </mxCell>
        <mxCell id="FJs2IsX_IAVPDREQglW6-14" value="" style="edgeStyle=orthogonalEdgeStyle;rounded=0;orthogonalLoop=1;jettySize=auto;html=1;" edge="1" parent="WIyWlLk6GJQsqaUBKTNV-1" source="ZZRqX1T7qgezjlXLAi40-4" target="WIyWlLk6GJQsqaUBKTNV-12">
          <mxGeometry relative="1" as="geometry" />
        </mxCell>
        <mxCell id="FJs2IsX_IAVPDREQglW6-17" value="" style="edgeStyle=orthogonalEdgeStyle;rounded=0;orthogonalLoop=1;jettySize=auto;html=1;" edge="1" parent="WIyWlLk6GJQsqaUBKTNV-1" source="ZZRqX1T7qgezjlXLAi40-4" target="ZZRqX1T7qgezjlXLAi40-9">
          <mxGeometry relative="1" as="geometry">
            <Array as="points">
              <mxPoint x="180" y="270" />
              <mxPoint x="180" y="270" />
            </Array>
          </mxGeometry>
        </mxCell>
        <mxCell id="ZZRqX1T7qgezjlXLAi40-4" value="" style="image;aspect=fixed;html=1;points=[];align=center;fontSize=12;image=img/lib/azure2/containers/App_Services.svg;" vertex="1" parent="WIyWlLk6GJQsqaUBKTNV-1">
          <mxGeometry x="150" y="280" width="60" height="60" as="geometry" />
        </mxCell>
        <mxCell id="ZZRqX1T7qgezjlXLAi40-8" value="Flight Event&lt;div&gt;Consumer App&lt;/div&gt;" style="text;html=1;align=center;verticalAlign=middle;whiteSpace=wrap;rounded=0;" vertex="1" parent="WIyWlLk6GJQsqaUBKTNV-1">
          <mxGeometry x="150" y="360" width="60" height="30" as="geometry" />
        </mxCell>
        <mxCell id="FJs2IsX_IAVPDREQglW6-16" value="" style="edgeStyle=orthogonalEdgeStyle;rounded=0;orthogonalLoop=1;jettySize=auto;html=1;" edge="1" parent="WIyWlLk6GJQsqaUBKTNV-1" source="ZZRqX1T7qgezjlXLAi40-9" target="ZZRqX1T7qgezjlXLAi40-3">
          <mxGeometry relative="1" as="geometry">
            <Array as="points">
              <mxPoint x="363" y="212" />
            </Array>
          </mxGeometry>
        </mxCell>
        <mxCell id="ZZRqX1T7qgezjlXLAi40-9" value="" style="image;aspect=fixed;html=1;points=[];align=center;fontSize=12;image=img/lib/azure2/general/Service_Health.svg;" vertex="1" parent="WIyWlLk6GJQsqaUBKTNV-1">
          <mxGeometry x="146" y="180" width="68" height="64" as="geometry" />
        </mxCell>
        <mxCell id="FJs2IsX_IAVPDREQglW6-13" value="" style="edgeStyle=orthogonalEdgeStyle;rounded=0;orthogonalLoop=1;jettySize=auto;html=1;" edge="1" parent="WIyWlLk6GJQsqaUBKTNV-1" source="ZZRqX1T7qgezjlXLAi40-11" target="FJs2IsX_IAVPDREQglW6-11">
          <mxGeometry relative="1" as="geometry">
            <Array as="points">
              <mxPoint x="580" y="290" />
              <mxPoint x="580" y="290" />
            </Array>
          </mxGeometry>
        </mxCell>
        <mxCell id="ZZRqX1T7qgezjlXLAi40-11" value="" style="image;aspect=fixed;html=1;points=[];align=center;fontSize=12;image=img/lib/azure2/integration/Service_Bus.svg;" vertex="1" parent="WIyWlLk6GJQsqaUBKTNV-1">
          <mxGeometry x="486" y="250" width="68" height="60" as="geometry" />
        </mxCell>
        <mxCell id="ZZRqX1T7qgezjlXLAi40-12" value="" style="image;aspect=fixed;html=1;points=[];align=center;fontSize=12;image=img/lib/azure2/app_services/Notification_Hubs.svg;" vertex="1" parent="WIyWlLk6GJQsqaUBKTNV-1">
          <mxGeometry x="854.5" y="529" width="67" height="56.00000000000001" as="geometry" />
        </mxCell>
        <mxCell id="FJs2IsX_IAVPDREQglW6-0" value="" style="image;aspect=fixed;html=1;points=[];align=center;fontSize=12;image=img/lib/azure2/compute/App_Services.svg;" vertex="1" parent="WIyWlLk6GJQsqaUBKTNV-1">
          <mxGeometry x="562" y="21" width="64" height="64" as="geometry" />
        </mxCell>
        <mxCell id="FJs2IsX_IAVPDREQglW6-1" value="" style="image;aspect=fixed;html=1;points=[];align=center;fontSize=12;image=img/lib/azure2/compute/App_Services.svg;direction=south;" vertex="1" parent="WIyWlLk6GJQsqaUBKTNV-1">
          <mxGeometry x="446" y="21" width="64" height="64" as="geometry" />
        </mxCell>
        <mxCell id="FJs2IsX_IAVPDREQglW6-2" value="" style="image;aspect=fixed;html=1;points=[];align=center;fontSize=12;image=img/lib/azure2/compute/App_Services.svg;" vertex="1" parent="WIyWlLk6GJQsqaUBKTNV-1">
          <mxGeometry x="326" y="18" width="64" height="64" as="geometry" />
        </mxCell>
        <mxCell id="FJs2IsX_IAVPDREQglW6-25" value="" style="edgeStyle=orthogonalEdgeStyle;rounded=0;orthogonalLoop=1;jettySize=auto;html=1;" edge="1" parent="WIyWlLk6GJQsqaUBKTNV-1" target="FJs2IsX_IAVPDREQglW6-24">
          <mxGeometry relative="1" as="geometry">
            <mxPoint x="524" y="374" as="sourcePoint" />
          </mxGeometry>
        </mxCell>
        <mxCell id="FJs2IsX_IAVPDREQglW6-3" value="Notify Queue&lt;div&gt;Service Bus&lt;/div&gt;" style="text;html=1;align=center;verticalAlign=middle;whiteSpace=wrap;rounded=0;" vertex="1" parent="WIyWlLk6GJQsqaUBKTNV-1">
          <mxGeometry x="494" y="330" width="60" height="30" as="geometry" />
        </mxCell>
        <mxCell id="FJs2IsX_IAVPDREQglW6-4" value="PassengersBooked" style="text;html=1;align=center;verticalAlign=middle;whiteSpace=wrap;rounded=0;" vertex="1" parent="WIyWlLk6GJQsqaUBKTNV-1">
          <mxGeometry x="570" y="85" width="60" height="30" as="geometry" />
        </mxCell>
        <mxCell id="FJs2IsX_IAVPDREQglW6-5" value="PassengersCheckin" style="text;html=1;align=center;verticalAlign=middle;whiteSpace=wrap;rounded=0;" vertex="1" parent="WIyWlLk6GJQsqaUBKTNV-1">
          <mxGeometry x="446" y="85" width="60" height="30" as="geometry" />
        </mxCell>
        <mxCell id="FJs2IsX_IAVPDREQglW6-6" value="FlightAvailability" style="text;html=1;align=center;verticalAlign=middle;whiteSpace=wrap;rounded=0;" vertex="1" parent="WIyWlLk6GJQsqaUBKTNV-1">
          <mxGeometry x="298" y="85" width="120" height="30" as="geometry" />
        </mxCell>
        <mxCell id="FJs2IsX_IAVPDREQglW6-8" value="SABRE" style="text;html=1;align=center;verticalAlign=middle;whiteSpace=wrap;rounded=0;" vertex="1" parent="WIyWlLk6GJQsqaUBKTNV-1">
          <mxGeometry x="450" y="-13" width="60" height="30" as="geometry" />
        </mxCell>
        <mxCell id="FJs2IsX_IAVPDREQglW6-19" value="" style="edgeStyle=orthogonalEdgeStyle;rounded=0;orthogonalLoop=1;jettySize=auto;html=1;" edge="1" parent="WIyWlLk6GJQsqaUBKTNV-1" source="FJs2IsX_IAVPDREQglW6-11" target="ZZRqX1T7qgezjlXLAi40-12">
          <mxGeometry relative="1" as="geometry" />
        </mxCell>
        <mxCell id="FJs2IsX_IAVPDREQglW6-11" value="" style="image;aspect=fixed;html=1;points=[];align=center;fontSize=12;image=img/lib/azure2/compute/Function_Apps.svg;" vertex="1" parent="WIyWlLk6GJQsqaUBKTNV-1">
          <mxGeometry x="620" y="260" width="68" height="60" as="geometry" />
        </mxCell>
        <mxCell id="FJs2IsX_IAVPDREQglW6-18" value="Service Health check" style="text;html=1;align=center;verticalAlign=middle;whiteSpace=wrap;rounded=0;" vertex="1" parent="WIyWlLk6GJQsqaUBKTNV-1">
          <mxGeometry x="150" y="120" width="60" height="30" as="geometry" />
        </mxCell>
        <mxCell id="FJs2IsX_IAVPDREQglW6-20" value="Worker FA&lt;br&gt;processing notify requests" style="text;html=1;align=center;verticalAlign=middle;whiteSpace=wrap;rounded=0;" vertex="1" parent="WIyWlLk6GJQsqaUBKTNV-1">
          <mxGeometry x="614" y="330" width="60" height="30" as="geometry" />
        </mxCell>
        <mxCell id="FJs2IsX_IAVPDREQglW6-21" value="Notification Hub" style="text;html=1;align=center;verticalAlign=middle;whiteSpace=wrap;rounded=0;" vertex="1" parent="WIyWlLk6GJQsqaUBKTNV-1">
          <mxGeometry x="858" y="594" width="60" height="30" as="geometry" />
        </mxCell>
        <mxCell id="FJs2IsX_IAVPDREQglW6-24" value="" style="image;aspect=fixed;html=1;points=[];align=center;fontSize=12;image=img/lib/azure2/compute/Function_Apps.svg;" vertex="1" parent="WIyWlLk6GJQsqaUBKTNV-1">
          <mxGeometry x="490" y="442" width="68" height="60" as="geometry" />
        </mxCell>
        <mxCell id="FJs2IsX_IAVPDREQglW6-26" value="" style="image;aspect=fixed;html=1;points=[];align=center;fontSize=12;image=img/lib/azure2/databases/Cache_Redis.svg;" vertex="1" parent="WIyWlLk6GJQsqaUBKTNV-1">
          <mxGeometry x="366" y="446" width="60.31" height="49" as="geometry" />
        </mxCell>
        <mxCell id="FJs2IsX_IAVPDREQglW6-27" value="" style="shape=cylinder3;whiteSpace=wrap;html=1;boundedLbl=1;backgroundOutline=1;size=15;" vertex="1" parent="WIyWlLk6GJQsqaUBKTNV-1">
          <mxGeometry x="574" y="605" width="42" height="70.75" as="geometry" />
        </mxCell>
        <mxCell id="FJs2IsX_IAVPDREQglW6-28" value="" style="image;aspect=fixed;html=1;points=[];align=center;fontSize=12;image=img/lib/azure2/security/Key_Vaults.svg;" vertex="1" parent="WIyWlLk6GJQsqaUBKTNV-1">
          <mxGeometry x="278" y="606" width="68" height="68" as="geometry" />
        </mxCell>
        <mxCell id="FJs2IsX_IAVPDREQglW6-29" value="" style="image;aspect=fixed;html=1;points=[];align=center;fontSize=12;image=img/lib/azure2/devops/Application_Insights.svg;" vertex="1" parent="WIyWlLk6GJQsqaUBKTNV-1">
          <mxGeometry x="474" y="602" width="44" height="63" as="geometry" />
        </mxCell>
        <mxCell id="FJs2IsX_IAVPDREQglW6-30" value="" style="image;aspect=fixed;html=1;points=[];align=center;fontSize=12;image=img/lib/azure2/analytics/Log_Analytics_Workspaces.svg;" vertex="1" parent="WIyWlLk6GJQsqaUBKTNV-1">
          <mxGeometry x="396" y="605" width="61.5" height="61.5" as="geometry" />
        </mxCell>
        <mxCell id="FJs2IsX_IAVPDREQglW6-33" value="Data Lake and failed queue list for permanent records&lt;div&gt;&lt;br&gt;&lt;div&gt;&lt;br&gt;&lt;/div&gt;&lt;/div&gt;" style="text;html=1;align=center;verticalAlign=middle;whiteSpace=wrap;rounded=0;" vertex="1" parent="WIyWlLk6GJQsqaUBKTNV-1">
          <mxGeometry x="530" y="704" width="130" height="30" as="geometry" />
        </mxCell>
        <mxCell id="FJs2IsX_IAVPDREQglW6-39" value="Cache" style="text;html=1;align=center;verticalAlign=middle;whiteSpace=wrap;rounded=0;" vertex="1" parent="WIyWlLk6GJQsqaUBKTNV-1">
          <mxGeometry x="314" y="504" width="60" height="30" as="geometry" />
        </mxCell>
        <mxCell id="FJs2IsX_IAVPDREQglW6-41" value="" style="endArrow=classic;startArrow=classic;html=1;rounded=0;entryX=0.447;entryY=1.005;entryDx=0;entryDy=0;entryPerimeter=0;" edge="1" parent="WIyWlLk6GJQsqaUBKTNV-1" source="ZZRqX1T7qgezjlXLAi40-2" target="WIyWlLk6GJQsqaUBKTNV-12">
          <mxGeometry width="50" height="50" relative="1" as="geometry">
            <mxPoint x="385" y="314" as="sourcePoint" />
            <mxPoint x="435" y="264" as="targetPoint" />
          </mxGeometry>
        </mxCell>
        <mxCell id="FJs2IsX_IAVPDREQglW6-42" value="" style="endArrow=classic;startArrow=classic;html=1;rounded=0;" edge="1" parent="WIyWlLk6GJQsqaUBKTNV-1">
          <mxGeometry width="50" height="50" relative="1" as="geometry">
            <mxPoint x="363" y="363" as="sourcePoint" />
            <mxPoint x="385" y="440" as="targetPoint" />
          </mxGeometry>
        </mxCell>
        <mxCell id="FJs2IsX_IAVPDREQglW6-43" value="Monitoring and Alerting" style="text;html=1;align=center;verticalAlign=middle;whiteSpace=wrap;rounded=0;" vertex="1" parent="WIyWlLk6GJQsqaUBKTNV-1">
          <mxGeometry x="402" y="682" width="100" height="30" as="geometry" />
        </mxCell>
        <mxCell id="qC6aaCz-V2yhVmoQAuTK-1" value="" style="rounded=1;whiteSpace=wrap;html=1;fontSize=12;glass=0;strokeWidth=1;shadow=0;" vertex="1" parent="WIyWlLk6GJQsqaUBKTNV-1">
          <mxGeometry x="294" y="1199" width="400" height="148" as="geometry" />
        </mxCell>
        <mxCell id="qC6aaCz-V2yhVmoQAuTK-2" value="" style="image;aspect=fixed;html=1;points=[];align=center;fontSize=12;image=img/lib/azure2/compute/App_Services.svg;" vertex="1" parent="WIyWlLk6GJQsqaUBKTNV-1">
          <mxGeometry x="578" y="1244" width="64" height="64" as="geometry" />
        </mxCell>
        <mxCell id="qC6aaCz-V2yhVmoQAuTK-3" value="" style="image;aspect=fixed;html=1;points=[];align=center;fontSize=12;image=img/lib/azure2/compute/App_Services.svg;direction=south;" vertex="1" parent="WIyWlLk6GJQsqaUBKTNV-1">
          <mxGeometry x="462" y="1244" width="64" height="64" as="geometry" />
        </mxCell>
        <mxCell id="qC6aaCz-V2yhVmoQAuTK-4" value="" style="image;aspect=fixed;html=1;points=[];align=center;fontSize=12;image=img/lib/azure2/compute/App_Services.svg;" vertex="1" parent="WIyWlLk6GJQsqaUBKTNV-1">
          <mxGeometry x="342" y="1241" width="64" height="64" as="geometry" />
        </mxCell>
        <mxCell id="qC6aaCz-V2yhVmoQAuTK-5" value="PassengersBooked" style="text;html=1;align=center;verticalAlign=middle;whiteSpace=wrap;rounded=0;" vertex="1" parent="WIyWlLk6GJQsqaUBKTNV-1">
          <mxGeometry x="586" y="1308" width="60" height="30" as="geometry" />
        </mxCell>
        <mxCell id="qC6aaCz-V2yhVmoQAuTK-6" value="PassengersCheckin" style="text;html=1;align=center;verticalAlign=middle;whiteSpace=wrap;rounded=0;" vertex="1" parent="WIyWlLk6GJQsqaUBKTNV-1">
          <mxGeometry x="462" y="1308" width="60" height="30" as="geometry" />
        </mxCell>
        <mxCell id="qC6aaCz-V2yhVmoQAuTK-7" value="FlightAvailability" style="text;html=1;align=center;verticalAlign=middle;whiteSpace=wrap;rounded=0;" vertex="1" parent="WIyWlLk6GJQsqaUBKTNV-1">
          <mxGeometry x="314" y="1308" width="120" height="30" as="geometry" />
        </mxCell>
        <mxCell id="qC6aaCz-V2yhVmoQAuTK-8" value="SABRE" style="text;html=1;align=center;verticalAlign=middle;whiteSpace=wrap;rounded=0;" vertex="1" parent="WIyWlLk6GJQsqaUBKTNV-1">
          <mxGeometry x="466" y="1210" width="60" height="30" as="geometry" />
        </mxCell>
        <mxCell id="qC6aaCz-V2yhVmoQAuTK-10" value="" style="edgeStyle=orthogonalEdgeStyle;rounded=0;orthogonalLoop=1;jettySize=auto;html=1;" edge="1" parent="WIyWlLk6GJQsqaUBKTNV-1" source="ZZRqX1T7qgezjlXLAi40-0" target="qC6aaCz-V2yhVmoQAuTK-9">
          <mxGeometry relative="1" as="geometry">
            <mxPoint x="57" y="640" as="sourcePoint" />
            <mxPoint x="180" y="407" as="targetPoint" />
          </mxGeometry>
        </mxCell>
        <mxCell id="qC6aaCz-V2yhVmoQAuTK-9" value="" style="verticalLabelPosition=bottom;html=1;verticalAlign=top;align=center;strokeColor=none;fillColor=#00BEF2;shape=mxgraph.azure.queue_generic;pointerEvents=1;" vertex="1" parent="WIyWlLk6GJQsqaUBKTNV-1">
          <mxGeometry x="155" y="504" width="50" height="15" as="geometry" />
        </mxCell>
        <mxCell id="qC6aaCz-V2yhVmoQAuTK-11" value="Keyvault" style="text;html=1;align=center;verticalAlign=middle;whiteSpace=wrap;rounded=0;" vertex="1" parent="WIyWlLk6GJQsqaUBKTNV-1">
          <mxGeometry x="284" y="682" width="60" height="30" as="geometry" />
        </mxCell>
        <mxCell id="qC6aaCz-V2yhVmoQAuTK-12" value="" style="shape=flexArrow;endArrow=classic;startArrow=classic;html=1;rounded=0;entryX=0.478;entryY=0.993;entryDx=0;entryDy=0;entryPerimeter=0;" edge="1" parent="WIyWlLk6GJQsqaUBKTNV-1" source="FJs2IsX_IAVPDREQglW6-9" target="WIyWlLk6GJQsqaUBKTNV-7">
          <mxGeometry width="100" height="100" relative="1" as="geometry">
            <mxPoint x="382" y="310" as="sourcePoint" />
            <mxPoint x="482" y="210" as="targetPoint" />
          </mxGeometry>
        </mxCell>
        <mxCell id="qC6aaCz-V2yhVmoQAuTK-13" value="EAST Consumer Group" style="text;html=1;align=center;verticalAlign=middle;whiteSpace=wrap;rounded=0;" vertex="1" parent="WIyWlLk6GJQsqaUBKTNV-1">
          <mxGeometry x="86" y="504" width="60" height="30" as="geometry" />
        </mxCell>
        <mxCell id="qC6aaCz-V2yhVmoQAuTK-14" value="" style="rounded=1;whiteSpace=wrap;html=1;" vertex="1" parent="WIyWlLk6GJQsqaUBKTNV-1">
          <mxGeometry x="250.25" y="792" width="486" height="339" as="geometry" />
        </mxCell>
        <mxCell id="qC6aaCz-V2yhVmoQAuTK-15" value="Orchestrator service AKS hosted" style="rounded=1;whiteSpace=wrap;html=1;fontSize=12;glass=0;strokeWidth=1;shadow=0;" vertex="1" parent="WIyWlLk6GJQsqaUBKTNV-1">
          <mxGeometry x="317.25" y="912" width="120" height="40" as="geometry" />
        </mxCell>
        <mxCell id="qC6aaCz-V2yhVmoQAuTK-17" value="" style="image;aspect=fixed;html=1;points=[];align=center;fontSize=12;image=img/lib/azure2/databases/Azure_Cosmos_DB.svg;" vertex="1" parent="WIyWlLk6GJQsqaUBKTNV-1">
          <mxGeometry x="305.25" y="1032" width="64" height="64" as="geometry" />
        </mxCell>
        <mxCell id="qC6aaCz-V2yhVmoQAuTK-18" value="" style="edgeStyle=orthogonalEdgeStyle;rounded=0;orthogonalLoop=1;jettySize=auto;html=1;" edge="1" parent="WIyWlLk6GJQsqaUBKTNV-1" source="qC6aaCz-V2yhVmoQAuTK-19" target="qC6aaCz-V2yhVmoQAuTK-27">
          <mxGeometry relative="1" as="geometry">
            <Array as="points">
              <mxPoint x="433.25" y="872" />
              <mxPoint x="433.25" y="872" />
            </Array>
          </mxGeometry>
        </mxCell>
        <mxCell id="qC6aaCz-V2yhVmoQAuTK-19" value="" style="image;aspect=fixed;html=1;points=[];align=center;fontSize=12;image=img/lib/azure2/containers/Kubernetes_Services.svg;" vertex="1" parent="WIyWlLk6GJQsqaUBKTNV-1">
          <mxGeometry x="353.25" y="834" width="68" height="60" as="geometry" />
        </mxCell>
        <mxCell id="qC6aaCz-V2yhVmoQAuTK-20" value="" style="edgeStyle=orthogonalEdgeStyle;rounded=0;orthogonalLoop=1;jettySize=auto;html=1;" edge="1" parent="WIyWlLk6GJQsqaUBKTNV-1" source="qC6aaCz-V2yhVmoQAuTK-22" target="qC6aaCz-V2yhVmoQAuTK-15">
          <mxGeometry relative="1" as="geometry" />
        </mxCell>
        <mxCell id="qC6aaCz-V2yhVmoQAuTK-21" value="" style="edgeStyle=orthogonalEdgeStyle;rounded=0;orthogonalLoop=1;jettySize=auto;html=1;" edge="1" parent="WIyWlLk6GJQsqaUBKTNV-1" source="qC6aaCz-V2yhVmoQAuTK-22">
          <mxGeometry relative="1" as="geometry">
            <Array as="points">
              <mxPoint x="203.25" y="862" />
              <mxPoint x="203.25" y="862" />
            </Array>
            <mxPoint x="203.29999999999995" y="836" as="targetPoint" />
          </mxGeometry>
        </mxCell>
        <mxCell id="qC6aaCz-V2yhVmoQAuTK-22" value="" style="image;aspect=fixed;html=1;points=[];align=center;fontSize=12;image=img/lib/azure2/containers/App_Services.svg;" vertex="1" parent="WIyWlLk6GJQsqaUBKTNV-1">
          <mxGeometry x="173.25" y="872" width="60" height="60" as="geometry" />
        </mxCell>
        <mxCell id="qC6aaCz-V2yhVmoQAuTK-23" value="Flight Event&lt;div&gt;Consumer App&lt;/div&gt;" style="text;html=1;align=center;verticalAlign=middle;whiteSpace=wrap;rounded=0;" vertex="1" parent="WIyWlLk6GJQsqaUBKTNV-1">
          <mxGeometry x="173.25" y="952" width="60" height="30" as="geometry" />
        </mxCell>
        <mxCell id="qC6aaCz-V2yhVmoQAuTK-24" value="" style="edgeStyle=orthogonalEdgeStyle;rounded=0;orthogonalLoop=1;jettySize=auto;html=1;" edge="1" parent="WIyWlLk6GJQsqaUBKTNV-1" target="qC6aaCz-V2yhVmoQAuTK-19">
          <mxGeometry relative="1" as="geometry">
            <mxPoint x="237.25" y="804" as="sourcePoint" />
          </mxGeometry>
        </mxCell>
        <mxCell id="qC6aaCz-V2yhVmoQAuTK-25" value="" style="image;aspect=fixed;html=1;points=[];align=center;fontSize=12;image=img/lib/azure2/general/Service_Health.svg;" vertex="1" parent="WIyWlLk6GJQsqaUBKTNV-1">
          <mxGeometry x="169.25" y="768" width="68" height="64" as="geometry" />
        </mxCell>
        <mxCell id="qC6aaCz-V2yhVmoQAuTK-26" value="" style="edgeStyle=orthogonalEdgeStyle;rounded=0;orthogonalLoop=1;jettySize=auto;html=1;" edge="1" parent="WIyWlLk6GJQsqaUBKTNV-1" source="qC6aaCz-V2yhVmoQAuTK-27" target="qC6aaCz-V2yhVmoQAuTK-30">
          <mxGeometry relative="1" as="geometry">
            <Array as="points">
              <mxPoint x="603.25" y="882" />
              <mxPoint x="603.25" y="882" />
            </Array>
          </mxGeometry>
        </mxCell>
        <mxCell id="qC6aaCz-V2yhVmoQAuTK-27" value="" style="image;aspect=fixed;html=1;points=[];align=center;fontSize=12;image=img/lib/azure2/integration/Service_Bus.svg;" vertex="1" parent="WIyWlLk6GJQsqaUBKTNV-1">
          <mxGeometry x="509.25" y="842" width="68" height="60" as="geometry" />
        </mxCell>
        <mxCell id="qC6aaCz-V2yhVmoQAuTK-28" value="" style="edgeStyle=orthogonalEdgeStyle;rounded=0;orthogonalLoop=1;jettySize=auto;html=1;" edge="1" parent="WIyWlLk6GJQsqaUBKTNV-1" target="qC6aaCz-V2yhVmoQAuTK-32">
          <mxGeometry relative="1" as="geometry">
            <mxPoint x="547.25" y="966" as="sourcePoint" />
          </mxGeometry>
        </mxCell>
        <mxCell id="qC6aaCz-V2yhVmoQAuTK-29" value="Notify Queue&lt;div&gt;Service Bus&lt;/div&gt;" style="text;html=1;align=center;verticalAlign=middle;whiteSpace=wrap;rounded=0;" vertex="1" parent="WIyWlLk6GJQsqaUBKTNV-1">
          <mxGeometry x="517.25" y="922" width="60" height="30" as="geometry" />
        </mxCell>
        <mxCell id="qC6aaCz-V2yhVmoQAuTK-45" style="edgeStyle=orthogonalEdgeStyle;rounded=0;orthogonalLoop=1;jettySize=auto;html=1;" edge="1" parent="WIyWlLk6GJQsqaUBKTNV-1" source="qC6aaCz-V2yhVmoQAuTK-30" target="FJs2IsX_IAVPDREQglW6-21">
          <mxGeometry relative="1" as="geometry">
            <Array as="points">
              <mxPoint x="891" y="882" />
            </Array>
          </mxGeometry>
        </mxCell>
        <mxCell id="qC6aaCz-V2yhVmoQAuTK-30" value="" style="image;aspect=fixed;html=1;points=[];align=center;fontSize=12;image=img/lib/azure2/compute/Function_Apps.svg;" vertex="1" parent="WIyWlLk6GJQsqaUBKTNV-1">
          <mxGeometry x="643.25" y="852" width="68" height="60" as="geometry" />
        </mxCell>
        <mxCell id="qC6aaCz-V2yhVmoQAuTK-31" value="Worker FA&lt;br&gt;processing notify requests" style="text;html=1;align=center;verticalAlign=middle;whiteSpace=wrap;rounded=0;" vertex="1" parent="WIyWlLk6GJQsqaUBKTNV-1">
          <mxGeometry x="637.25" y="922" width="60" height="30" as="geometry" />
        </mxCell>
        <mxCell id="qC6aaCz-V2yhVmoQAuTK-32" value="" style="image;aspect=fixed;html=1;points=[];align=center;fontSize=12;image=img/lib/azure2/compute/Function_Apps.svg;" vertex="1" parent="WIyWlLk6GJQsqaUBKTNV-1">
          <mxGeometry x="513.25" y="1034" width="68" height="60" as="geometry" />
        </mxCell>
        <mxCell id="qC6aaCz-V2yhVmoQAuTK-33" value="" style="image;aspect=fixed;html=1;points=[];align=center;fontSize=12;image=img/lib/azure2/databases/Cache_Redis.svg;" vertex="1" parent="WIyWlLk6GJQsqaUBKTNV-1">
          <mxGeometry x="389.25" y="1038" width="60.31" height="49" as="geometry" />
        </mxCell>
        <mxCell id="qC6aaCz-V2yhVmoQAuTK-34" value="Cache" style="text;html=1;align=center;verticalAlign=middle;whiteSpace=wrap;rounded=0;" vertex="1" parent="WIyWlLk6GJQsqaUBKTNV-1">
          <mxGeometry x="337.25" y="1096" width="60" height="30" as="geometry" />
        </mxCell>
        <mxCell id="qC6aaCz-V2yhVmoQAuTK-35" value="" style="endArrow=classic;startArrow=classic;html=1;rounded=0;entryX=0.447;entryY=1.005;entryDx=0;entryDy=0;entryPerimeter=0;" edge="1" parent="WIyWlLk6GJQsqaUBKTNV-1" source="qC6aaCz-V2yhVmoQAuTK-17" target="qC6aaCz-V2yhVmoQAuTK-15">
          <mxGeometry width="50" height="50" relative="1" as="geometry">
            <mxPoint x="408.25" y="906" as="sourcePoint" />
            <mxPoint x="458.25" y="856" as="targetPoint" />
          </mxGeometry>
        </mxCell>
        <mxCell id="qC6aaCz-V2yhVmoQAuTK-36" value="" style="endArrow=classic;startArrow=classic;html=1;rounded=0;" edge="1" parent="WIyWlLk6GJQsqaUBKTNV-1">
          <mxGeometry width="50" height="50" relative="1" as="geometry">
            <mxPoint x="386.25" y="955" as="sourcePoint" />
            <mxPoint x="408.25" y="1032" as="targetPoint" />
          </mxGeometry>
        </mxCell>
        <mxCell id="qC6aaCz-V2yhVmoQAuTK-37" value="" style="verticalLabelPosition=bottom;html=1;verticalAlign=top;align=center;strokeColor=none;fillColor=#00BEF2;shape=mxgraph.azure.queue_generic;pointerEvents=1;" vertex="1" parent="WIyWlLk6GJQsqaUBKTNV-1">
          <mxGeometry x="86" y="818" width="50" height="15" as="geometry" />
        </mxCell>
        <mxCell id="qC6aaCz-V2yhVmoQAuTK-38" value="WEST Consumer Group" style="text;html=1;align=center;verticalAlign=middle;whiteSpace=wrap;rounded=0;" vertex="1" parent="WIyWlLk6GJQsqaUBKTNV-1">
          <mxGeometry x="76" y="768" width="60" height="30" as="geometry" />
        </mxCell>
        <mxCell id="qC6aaCz-V2yhVmoQAuTK-40" value="" style="endArrow=classic;html=1;rounded=0;" edge="1" parent="WIyWlLk6GJQsqaUBKTNV-1">
          <mxGeometry width="50" height="50" relative="1" as="geometry">
            <mxPoint x="106" y="638" as="sourcePoint" />
            <mxPoint x="106" y="759" as="targetPoint" />
          </mxGeometry>
        </mxCell>
        <mxCell id="qC6aaCz-V2yhVmoQAuTK-44" value="" style="shape=flexArrow;endArrow=classic;startArrow=classic;html=1;rounded=0;entryX=0.5;entryY=1;entryDx=0;entryDy=0;" edge="1" parent="WIyWlLk6GJQsqaUBKTNV-1" target="FJs2IsX_IAVPDREQglW6-9">
          <mxGeometry width="100" height="100" relative="1" as="geometry">
            <mxPoint x="470" y="594" as="sourcePoint" />
            <mxPoint x="476.75" y="550" as="targetPoint" />
          </mxGeometry>
        </mxCell>
        <mxCell id="qC6aaCz-V2yhVmoQAuTK-46" value="" style="shape=flexArrow;endArrow=classic;startArrow=classic;html=1;rounded=0;exitX=0.456;exitY=-0.012;exitDx=0;exitDy=0;exitPerimeter=0;" edge="1" parent="WIyWlLk6GJQsqaUBKTNV-1" source="qC6aaCz-V2yhVmoQAuTK-14">
          <mxGeometry width="100" height="100" relative="1" as="geometry">
            <mxPoint x="470.5" y="767" as="sourcePoint" />
            <mxPoint x="470.5" y="726" as="targetPoint" />
          </mxGeometry>
        </mxCell>
        <mxCell id="qC6aaCz-V2yhVmoQAuTK-47" value="" style="shape=flexArrow;endArrow=classic;startArrow=classic;html=1;rounded=0;exitX=0.48;exitY=0.007;exitDx=0;exitDy=0;exitPerimeter=0;entryX=0.481;entryY=1;entryDx=0;entryDy=0;entryPerimeter=0;" edge="1" parent="WIyWlLk6GJQsqaUBKTNV-1" source="qC6aaCz-V2yhVmoQAuTK-1" target="qC6aaCz-V2yhVmoQAuTK-14">
          <mxGeometry width="100" height="100" relative="1" as="geometry">
            <mxPoint x="490" y="1201.056" as="sourcePoint" />
            <mxPoint x="495" y="1107" as="targetPoint" />
          </mxGeometry>
        </mxCell>
        <mxCell id="qC6aaCz-V2yhVmoQAuTK-52" value="" style="endArrow=classic;html=1;rounded=0;exitX=0.5;exitY=1;exitDx=0;exitDy=0;exitPerimeter=0;" edge="1" parent="WIyWlLk6GJQsqaUBKTNV-1" source="qC6aaCz-V2yhVmoQAuTK-37" target="qC6aaCz-V2yhVmoQAuTK-22">
          <mxGeometry width="50" height="50" relative="1" as="geometry">
            <mxPoint x="56.670000000000016" y="932" as="sourcePoint" />
            <mxPoint x="106.67000000000002" y="882" as="targetPoint" />
            <Array as="points">
              <mxPoint x="111" y="902" />
            </Array>
          </mxGeometry>
        </mxCell>
        <mxCell id="qC6aaCz-V2yhVmoQAuTK-53" value="&lt;h1 style=&quot;margin-top: 0px;&quot;&gt;Disaster Recovery&lt;/h1&gt;&lt;div&gt;Multi region disaster recovery plan.&lt;/div&gt;" style="text;html=1;whiteSpace=wrap;overflow=hidden;rounded=0;" vertex="1" parent="WIyWlLk6GJQsqaUBKTNV-1">
          <mxGeometry x="66" y="-77" width="220" height="120" as="geometry" />
        </mxCell>
        <mxCell id="qC6aaCz-V2yhVmoQAuTK-54" value="WEST US" style="text;html=1;align=center;verticalAlign=middle;whiteSpace=wrap;rounded=0;" vertex="1" parent="WIyWlLk6GJQsqaUBKTNV-1">
          <mxGeometry x="626" y="1064" width="60" height="30" as="geometry" />
        </mxCell>
        <mxCell id="qC6aaCz-V2yhVmoQAuTK-55" value="EAST US" style="text;html=1;align=center;verticalAlign=middle;whiteSpace=wrap;rounded=0;" vertex="1" parent="WIyWlLk6GJQsqaUBKTNV-1">
          <mxGeometry x="614" y="455.5" width="60" height="30" as="geometry" />
        </mxCell>
        <mxCell id="qC6aaCz-V2yhVmoQAuTK-56" value="Function App to write to Data Lake" style="text;html=1;align=center;verticalAlign=middle;whiteSpace=wrap;rounded=0;" vertex="1" parent="WIyWlLk6GJQsqaUBKTNV-1">
          <mxGeometry x="514" y="499" width="91" height="30" as="geometry" />
        </mxCell>
        <mxCell id="qC6aaCz-V2yhVmoQAuTK-57" value="Function App to write to Data Lake" style="text;html=1;align=center;verticalAlign=middle;whiteSpace=wrap;rounded=0;" vertex="1" parent="WIyWlLk6GJQsqaUBKTNV-1">
          <mxGeometry x="535" y="1094" width="91" height="30" as="geometry" />
        </mxCell>
        <mxCell id="Do7JxtsmqixvOymnNRPH-0" value="Flight Status Service" style="image;aspect=fixed;html=1;points=[];align=center;fontSize=12;image=img/lib/azure2/containers/App_Services.svg;" vertex="1" parent="WIyWlLk6GJQsqaUBKTNV-1">
          <mxGeometry x="-7.5" y="498" width="60" height="60" as="geometry" />
        </mxCell>
        <mxCell id="Do7JxtsmqixvOymnNRPH-1" value="" style="endArrow=classic;startArrow=classic;html=1;rounded=0;entryX=-0.006;entryY=0.65;entryDx=0;entryDy=0;entryPerimeter=0;" edge="1" parent="WIyWlLk6GJQsqaUBKTNV-1" source="Do7JxtsmqixvOymnNRPH-0" target="ZZRqX1T7qgezjlXLAi40-4">
          <mxGeometry width="50" height="50" relative="1" as="geometry">
            <mxPoint x="61.83" y="502.5" as="sourcePoint" />
            <mxPoint x="219.5" y="407" as="targetPoint" />
          </mxGeometry>
        </mxCell>
        <mxCell id="Do7JxtsmqixvOymnNRPH-2" style="edgeStyle=orthogonalEdgeStyle;rounded=0;orthogonalLoop=1;jettySize=auto;html=1;entryX=-0.037;entryY=0.194;entryDx=0;entryDy=0;entryPerimeter=0;" edge="1" parent="WIyWlLk6GJQsqaUBKTNV-1" source="Do7JxtsmqixvOymnNRPH-0" target="qC6aaCz-V2yhVmoQAuTK-22">
          <mxGeometry relative="1" as="geometry" />
        </mxCell>
      </root>
    </mxGraphModel>
  </diagram>
</mxfile>
